<svg version="1.0" xmlns="http://www.w3.org/2000/svg"
 width="24" height="24" viewBox="0 0 256.000000 256.000000"
 preserveAspectRatio="xMidYMid meet">

<g transform="translate(0.000000,256.000000) scale(0.100000,-0.100000)"
fill="currentColor" stroke="none">
<path d="M720 2071 c-115 -35 -194 -144 -193 -266 0 -47 9 -80 39 -150 35 -82
38 -98 39 -180 0 -80 -3 -97 -31 -155 -17 -36 -61 -112 -97 -169 -86 -134
-110 -196 -110 -286 -1 -79 20 -130 74 -184 51 -51 86 -65 164 -66 59 0 78 5
123 29 96 53 150 162 138 277 -3 31 -26 122 -52 200 -43 136 -46 149 -42 234
3 77 8 98 31 138 31 53 52 67 97 67 65 0 102 -68 121 -222 20 -163 88 -244
206 -241 101 3 178 72 219 197 28 85 60 140 108 184 75 69 136 68 170 -1 28
-58 15 -129 -42 -236 -128 -240 -142 -280 -142 -396 0 -122 60 -220 170 -276
141 -71 340 20 386 178 29 100 2 187 -110 347 -118 169 -114 239 25 453 85
131 109 187 109 253 0 70 -12 113 -47 162 -76 110 -230 127 -343 37 -58 -46
-89 -89 -163 -228 -69 -131 -120 -191 -192 -226 -47 -23 -65 -27 -120 -23 -53
3 -71 9 -101 34 -55 44 -91 116 -114 229 -11 55 -32 124 -46 152 -53 110 -169
166 -274 134z"/>
</g>
</svg>